<svg xmlns="http://www.w3.org/2000/svg" xmlns:xlink="http://www.w3.org/1999/xlink" width="1080" height="225.393" viewBox="0 0 1080 225.393">
  <defs>
    <style>
      .cls-1 {
        fill: url(#linear-gradient);
      }

      .cls-2 {
        fill: url(#linear-gradient-2);
      }

      .cls-3 {
        fill: #fff;
      }

      .cls-4 {
        fill: #05f;
      }
    </style>
    <linearGradient id="linear-gradient" x1="-2.699" y1="2.585" x2="0.822" y2="0.29" gradientUnits="objectBoundingBox">
      <stop offset="0" stop-color="#02f"/>
      <stop offset="0.999" stop-color="#0de"/>
    </linearGradient>
    <linearGradient id="linear-gradient-2" x1="0.08" y1="0.92" x2="0.92" y2="0.08" xlink:href="#linear-gradient"/>
  </defs>
  <g id="Grupo_30" data-name="Grupo 30" transform="translate(-114.745 -114.745)">
    <g id="Grupo_29" data-name="Grupo 29">
      <g id="Grupo_25" data-name="Grupo 25">
        <path id="Caminho_42" data-name="Caminho 42" class="cls-1" d="M339.979,199.515c-.608-32.4-3.549-52.616-17.772-66.839-9.054-9.055-20.54-13.536-36.049-15.755v82.594Z"/>
        <path id="Caminho_43" data-name="Caminho 43" class="cls-2" d="M286.158,284.263a15.306,15.306,0,0,0,2.863,9.639,8.568,8.568,0,0,0,6.324,3.537c7.647.515,11.1-6.224,11.1-6.224l13.831,13.831-.041-.035s-7.92,14.9-29.614,14.9q-29.065,0-29.059-28.97V222.11s-59.219-.076-70.42,0q-15.414,0-25.028,10.416T156.5,259.6q0,16.652,9.618,27.184t25.028,10.532q16.567,0,26.3-13.621l15.96,15.933-.321.418q-15.345,19.75-43.1,19.865-25.843,0-42.7-17.249T130.426,259.6q0-25.807,16.858-42.946t42.7-17.136h71.578V115.056c-10.052-.31-21.352-.311-34.123-.311-49.382,0-76.835,0-94.765,17.931s-17.931,45.383-17.931,94.765,0,76.836,17.931,94.766,45.383,17.931,94.765,17.931,76.836,0,94.766-17.931,17.931-45.383,17.931-94.766c0-1.807,0-3.581,0-5.331H286.158Z"/>
        <path id="Caminho_44" data-name="Caminho 44" class="cls-3" d="M286.158,199.515V116.921a225.351,225.351,0,0,0-24.594-1.865v84.459H189.986q-25.843,0-42.7,17.136T130.426,259.6q0,25.814,16.858,43.062t42.7,17.249q27.759-.115,43.1-19.865l.321-.418-15.96-15.933q-9.733,13.623-26.3,13.621-15.414,0-25.028-10.532T156.5,259.6q0-16.651,9.618-27.071t25.028-10.416c11.2-.076,70.42,0,70.42,0v68.828q0,28.971,29.059,28.97c21.694,0,29.614-14.9,29.614-14.9l.041.035-13.831-13.831s-3.455,6.739-11.1,6.224a8.568,8.568,0,0,1-6.324-3.537,15.306,15.306,0,0,1-2.863-9.639V222.11h53.979c0-8.133-.028-15.645-.158-22.6Z"/>
      </g>
      <g id="Grupo_28" data-name="Grupo 28">
        <g id="Grupo_27" data-name="Grupo 27">
          <g id="Grupo_26" data-name="Grupo 26">
            <path id="Caminho_45" data-name="Caminho 45" class="cls-4" d="M393.878,302.661Q377.024,285.41,377.02,259.6t16.858-42.946q16.865-17.138,42.7-17.136,28.734,0,43.917,20.821L464.42,236.406c-6.147-9.733-15.482-14.37-26.682-14.294q-15.414,0-25.029,10.416T403.092,259.6q0,16.652,9.617,27.184t25.029,10.532q16.567,0,26.3-13.621l16,15.881s-.611.793-.922,1.181q-15.286,19.041-42.54,19.154Q410.736,319.91,393.878,302.661Z"/>
            <path id="Caminho_46" data-name="Caminho 46" class="cls-4" d="M533.853,317.086V202.341h24.889v16.022A53.875,53.875,0,0,1,599.375,199.7q18.288,0,27.608,9.493t9.321,27.32v80.572H611.415V245.891q0-12.785-6.02-18.2t-17.249-5.415a33.827,33.827,0,0,0-16.61,4.32,40.846,40.846,0,0,0-12.794,10.773v79.718Z"/>
            <path id="Caminho_47" data-name="Caminho 47" class="cls-4" d="M653.8,317.086V202.341h24.89v16.022A53.871,53.871,0,0,1,719.326,199.7q18.287,0,27.608,9.493t9.321,27.32v80.572h-24.89V245.891q0-12.785-6.019-18.2T708.1,222.275a33.828,33.828,0,0,0-16.611,4.32,40.842,40.842,0,0,0-12.793,10.773v79.718Z"/>
            <path id="Caminho_48" data-name="Caminho 48" class="cls-4" d="M768.549,259.539q0-25.226,16.568-42.722t41.792-17.5q25.461,0,40.923,17.5t15.462,44.931v6.162H794.706a34.7,34.7,0,0,0,11.161,22.7q9.765,9.044,25.228,9.042,19.2,0,31.87-11.841c.145-.136.433-.41.433-.41l14.065,14.065-2.075,1.77q-18.135,16.761-46.618,16.877-26.393,0-43.308-16.741T768.549,259.539Zm25.925-9.533h64.755a33.812,33.812,0,0,0-8.9-21.042q-8.191-9.183-23.657-9.185-14.768,0-23.135,9.185A33.4,33.4,0,0,0,794.474,250.006Z"/>
            <path id="Caminho_49" data-name="Caminho 49" class="cls-4" d="M1092.294,281.835q0-18.667,11.962-28.238a43.412,43.412,0,0,1,27.945-9.568q24.619,0,37.457,14.819V241.332a19.324,19.324,0,0,0-7.525-15.966q-7.531-5.956-19.43-5.958-18.931,0-33.183,14.18l-.386.388-13.962-13.962a22.508,22.508,0,0,1,2.84-3.186q19.368-17.96,48.542-17.957,21.183,0,34.689,9.919t13.5,31.738v76.558h-25.087V304.473Q1156.234,320,1132.2,320.109a41.813,41.813,0,0,1-27.711-10.269Q1092.292,299.574,1092.294,281.835Zm32.146-14.819a19.58,19.58,0,0,0,0,30.105q7.061,5.721,17.8,5.718,18.434,0,27.422-11.9V273.2q-9.1-11.9-27.422-11.9Q1131.5,261.3,1124.44,267.016Z"/>
            <path id="Caminho_50" data-name="Caminho 50" class="cls-4" d="M491.765,317.086V202.341h24.588V317.086Z"/>
            <path id="Caminho_51" data-name="Caminho 51" class="cls-4" d="M491.413,177.75V153.167H516V177.75Z"/>
            <path id="Caminho_52" data-name="Caminho 52" class="cls-4" d="M1071.608,291.217s-3.454,6.739-11.1,6.224a8.563,8.563,0,0,1-6.324-3.537,15.3,15.3,0,0,1-2.864-9.639V222.112H1075.9v-22.6h-24.583v-46.35h-24.594v46.35H955.147q-25.843,0-42.7,17.136T895.588,259.6q0,25.814,16.858,43.062t42.7,17.249q27.761-.115,43.1-19.865c.108-.138.322-.418.322-.418l-15.96-15.933q-9.734,13.623-26.3,13.621-15.414,0-25.029-10.532T921.66,259.6q0-16.65,9.617-27.071t25.029-10.416c11.2-.076,70.419,0,70.419,0V290.94q0,28.971,29.059,28.97c21.695,0,29.615-14.9,29.615-14.9l.04.034Z"/>
          </g>
        </g>
      </g>
    </g>
  </g>
</svg>
